<svg xmlns:dc="http://purl.org/dc/elements/1.1/" xmlns:cc="http://creativecommons.org/ns#" xmlns:rdf="http://www.w3.org/1999/02/22-rdf-syntax-ns#" xmlns:svg="http://www.w3.org/2000/svg" xmlns="http://www.w3.org/2000/svg" xmlns:sodipodi="http://sodipodi.sourceforge.net/DTD/sodipodi-0.dtd" xmlns:inkscape="http://www.inkscape.org/namespaces/inkscape" version="1.1" inkscape:version="0.47 r22583" width="94" height="128" sodipodi:docname="pin.svg" style=""><rect id="backgroundrect" width="100%" height="100%" x="0" y="0" fill="none" stroke="none"/>
  <metadata id="metadata2822">
    <rdf:RDF>
      <cc:Work rdf:about="">
        <dc:format>image/svg+xml</dc:format>
        <dc:type rdf:resource="http://purl.org/dc/dcmitype/StillImage"/>
      </cc:Work>
    </rdf:RDF>
  </metadata>
  <defs id="defs2820">
    <inkscape:perspective sodipodi:type="inkscape:persp3d" inkscape:vp_x="0 : 0.5 : 1" inkscape:vp_y="0 : 1000 : 0" inkscape:vp_z="1 : 0.5 : 1" inkscape:persp3d-origin="0.5 : 0.33333333 : 1" id="perspective2824"/>
  </defs>
  <sodipodi:namedview pagecolor="#ffffff" bordercolor="#666666" borderopacity="1" objecttolerance="10" gridtolerance="10" guidetolerance="10" inkscape:pageopacity="0" inkscape:pageshadow="2" inkscape:window-width="1126" inkscape:window-height="809" id="namedview2818" showgrid="false" inkscape:zoom="3.0991164" inkscape:cx="44.920355" inkscape:cy="60.493358" inkscape:window-x="287" inkscape:window-y="0" inkscape:window-maximized="0" inkscape:current-layer="svg2816"/>
  
  
  
  
  
  
<g class="currentLayer" style=""><title>Layer 1</title><path style="fill-opacity: 0.988235;" d="M 46.977003,126.64334 C 46.693972,125.95584 40.813862,120.20567 36.603071,114.98067 11.655836,81.858372 -16.158365,51.082905 16.319943,13.682837 30.700637,-0.21083367 48.43303,-1.0034227 66.662563,5.4726973 117.9922,35.174601 80.828906,83.627914 56.427079,115.48067 l -9.450076,11.16267 z M 62.417383,75.872046 C 96.654166,51.387445 70.185413,4.2391813 32.569429,19.913013 21.585178,25.769872 16.134954,35.960547 15.944071,47.980664 c -0.524495,11.693153 5.685418,21.471037 15.526227,27.460808 7.055481,3.840074 10.157178,4.533661 18.145697,4.057654 5.177622,-0.308516 8.161127,-1.153847 12.801388,-3.62708 z" id="path4127" sodipodi:nodetypes="ccccccccccsc" class="" fill-opacity="1" fill="#4a90d6"/><path sodipodi:type="arc" style="fill-rule: nonzero; stroke: none;" id="path4129" sodipodi:cx="52.363636" sodipodi:cy="49.05526" sodipodi:rx="51.222816" sodipodi:ry="41.754009" d="m37.16392200889109,87.56168854555759 a44.98873651975392,43.9211589783252 0 1 1 1.1212461620547898,0.2188915055548 " sodipodi:start="1.7808687" sodipodi:end="8.0386371" sodipodi:open="true" class="" fill="#4a90d6" fill-opacity="1"/><path sodipodi:type="arc" style="opacity:0.34016395;fill:#000000;fill-opacity:0;fill-rule:nonzero;stroke:none" id="path4131" sodipodi:cx="49.05526" sodipodi:cy="48.59893" sodipodi:rx="26.010695" sodipodi:ry="20.991087" d="m44.27657721102905,69.128546 a26.010695,20.991087 0 1 1 0.6482600000000001,0.10461400000000001 " sodipodi:start="1.7808687" sodipodi:end="8.0386371" sodipodi:open="true"/><path sodipodi:type="arc" style="fill:#000080;fill-opacity:0;fill-rule:nonzero;stroke:none" id="path4135" sodipodi:cx="35.365417" sodipodi:cy="102.78788" sodipodi:rx="16.655972" sodipodi:ry="11.750445" d="m32.53748121102905,114.28 a16.655972,11.750445000000001 0 1 1 0.41511400000000004,0.05860000000000001 " sodipodi:start="1.7808687" sodipodi:end="8.0386371" sodipodi:open="true" class=""/><path sodipodi:type="arc" style="fill-opacity: 1; fill-rule: nonzero; stroke: none;" id="path4149" sodipodi:cx="52.705883" sodipodi:cy="52.021389" sodipodi:rx="34.452763" sodipodi:ry="33.540108" d="m40.106323958697004,81.38147132404099 a33.42623741397291,34.452593470226404 0 1 1 0.8330760879144,0.17170258549900003 " sodipodi:start="1.7808687" sodipodi:end="8.0386371" sodipodi:open="true" class="selected" fill-opacity="1" fill="#2270bf"/><path sodipodi:type="arc" style="fill:#ffffff;fill-opacity:1;fill-rule:nonzero;stroke:none" id="path4184" sodipodi:cx="64.211853" sodipodi:cy="68.789574" sodipodi:rx="34.203297" sodipodi:ry="36.623341" d="m42.01650678044384,69.4246327032916 a22.10556485659428,22.589687642686023 0 1 1 0.5509332630433201,0.1125803838744 " sodipodi:start="1.7808687" sodipodi:end="8.0386371" sodipodi:open="true"/></g></svg>